<?xml version="1.0" encoding="UTF-8"?>
<svg width="23px" height="23px" viewBox="0 0 23 23" version="1.1" xmlns="http://www.w3.org/2000/svg" xmlns:xlink="http://www.w3.org/1999/xlink">
    <title>profile</title>
    <defs>
        <polygon id="path-1" points="0 0 23 0 23 23 0 23"></polygon>
    </defs>
    <g id="Page-1" stroke="none" stroke-width="1" fill="none" fill-rule="evenodd" opacity="0.50437128">
        <g id="1" transform="translate(-309, -772)">
            <g id="profile" transform="translate(309, 772)">
                <mask id="mask-2" fill="white">
                    <use xlink:href="#path-1"></use>
                </mask>
                <g id="Clip-2"></g>
                <path d="M23,11.5017972 C23,14.5857165 21.7863906,17.3861046 19.811026,19.4513961 C17.7247344,21.6327838 14.788401,22.9940095 11.5343802,23.0035943 C11.5229401,23.0035943 11.5114401,23.0035943 11.5,23.0035943 C11.4885599,23.0035943 11.4770599,23.0035943 11.4656198,23.0035943 C8.21159896,22.9940095 5.27526563,21.6327838 3.18897396,19.4513961 C1.21360938,17.3861046 0,14.5857165 0,11.5017972 C0,5.14951034 5.14870573,0 11.5,0 C17.8512943,0 23,5.14951034 23,11.5017972 Z M18.4703776,17.2526957 C16.8131797,15.2456321 14.306,13.9663567 11.5,13.9663567 C8.694,13.9663567 6.18682031,15.2456321 4.5296224,17.2526957 C6.18682031,19.2597593 8.694,20.5387951 11.5,20.5387951 C14.306,20.5387951 16.8131797,19.2597593 18.4703776,17.2526957 Z M11.5002396,12.3233969 C13.7685547,12.3233969 15.6072969,10.4841277 15.6072969,8.21545814 C15.6072969,5.94678856 13.7685547,4.10769912 11.5002396,4.10769912 C9.23192448,4.10769912 7.39318229,5.94678856 7.39318229,8.21545814 C7.39318229,10.4841277 9.23192448,12.3233969 11.5002396,12.3233969 Z" id="Fill-1" fill="#ACBABE" mask="url(#mask-2)"></path>
            </g>
        </g>
    </g>
</svg>