<?xml version="1.0" encoding="UTF-8"?>
<svg width="44px" height="44px" viewBox="0 0 44 44" version="1.1" xmlns="http://www.w3.org/2000/svg" xmlns:xlink="http://www.w3.org/1999/xlink">
    <title>Group 2</title>
    <g id="Page-1" stroke="none" stroke-width="1" fill="none" fill-rule="evenodd">
        <g id="2" transform="translate(-173, -750)" fill="#000000">
            <g id="Group-2" transform="translate(173, 750)">
                <g id="link-(2)" transform="translate(4.8889, 4.8889)" fill-rule="nonzero">
                    <path d="M31.5835426,2.63867957 C28.0653031,-0.879559858 22.3408207,-0.879559858 18.8225812,2.63867957 L15.697549,5.76397286 L19.9512899,10.0174526 L23.0763221,6.89242047 C24.2488945,5.71958688 26.1572294,5.71958688 27.3298018,6.89242047 C28.5026353,8.06525393 28.5026353,9.97332777 27.3298018,11.1461612 L25.6185928,12.8576314 L22.0737217,13.5665012 L21.3648519,17.1111111 L15.697549,22.778414 L19.9510288,27.032677 L25.6185928,21.3648519 L29.1634638,20.6559821 L29.8723336,17.1111111 L31.5835426,15.3999021 C35.1017821,11.8816626 35.1017821,6.15691907 31.5835426,2.63867957 Z" id="Path"></path>
                    <polygon id="Path" points="25.6185928 12.8573703 17.1111111 4.35014971 13.1007097 4.35014971 17.1111111 12.8573703 21.3648519 17.1111111"></polygon>
                    <path d="M31.5835426,18.8225812 L29.8723336,17.1111111 L25.6185928,21.3648519 L27.3298018,23.0763221 C28.5026353,24.2488945 28.5026353,26.1572294 27.3298018,27.3298018 C26.1572294,28.5026353 24.2488945,28.5026353 23.0763221,27.3298018 L17.1111111,21.3648519 L13.1007097,21.3648519 L17.1111111,29.8720725 L18.8225812,31.5835426 C22.3408207,35.1017821 28.0653031,35.1017821 31.5835426,31.5835426 C35.1017821,28.0653031 35.1017821,22.3408207 31.5835426,18.8225812 L31.5835426,18.8225812 Z" id="Path"></path>
                    <path d="M17.1111111,29.8720725 L17.1111111,21.3648519 L6.89242047,11.1461612 C5.71984802,9.97332777 5.71984802,8.06525393 6.89242047,6.89242047 C8.06525393,5.71958688 9.97332777,5.71958688 11.1461612,6.89242047 L17.1111111,12.8573703 L17.1111111,4.35014971 L15.3999021,2.63867957 C11.8816626,-0.879559858 6.15718022,-0.879559858 2.63867957,2.63867957 C-0.879559858,6.15691907 -0.879559858,11.8814015 2.63867957,15.3999021 L12.8576314,25.6185928 L14.039081,28.6906229 L17.1111111,29.8720725 Z" id="Path"></path>
                    <path d="M12.8576314,25.6185928 L11.1461612,27.3298018 C9.97332777,28.5026353 8.06525393,28.5026353 6.89242047,27.3298018 C5.71958688,26.1569683 5.71958688,24.2488945 6.89242047,23.076061 L17.1069336,12.8618089 L12.8531928,8.60806804 L2.63894072,18.8225812 C-0.879298781,22.3408207 -0.879298781,28.0653031 2.63894072,31.5835426 C6.15718022,35.1017821 11.8816626,35.1017821 15.3999021,31.5835426 L17.1111111,29.8720725 L12.8576314,25.6185928 Z" id="Path"></path>
                </g>
                <g id="Group" transform="translate(16.0247, 0)">
                    <rect id="Rectangle" x="4.88888889" y="0" width="2.17283951" height="3.25925926" rx="1.08"></rect>
                    <rect id="Rectangle" x="10.5925926" y="0.543209877" width="1.35802469" height="2.17283951" rx="0.679012346"></rect>
                    <rect id="Rectangle" x="0" y="0.543209877" width="1.35802469" height="2.17283951" rx="0.679012346"></rect>
                </g>
                <g id="Group" transform="translate(42.3704, 22) rotate(90) translate(-42.3704, -22)translate(36.3951, 20.3704)">
                    <rect id="Rectangle" x="4.88888889" y="3.01044966e-14" width="2.17283951" height="3.25925926" rx="1.08"></rect>
                    <rect id="Rectangle" x="10.5925926" y="0.543209877" width="1.35802469" height="2.17283951" rx="0.679012346"></rect>
                    <rect id="Rectangle" x="0" y="0.543209877" width="1.35802469" height="2.17283951" rx="0.679012346"></rect>
                </g>
                <g id="Group" transform="translate(16.0247, 40.7407)">
                    <rect id="Rectangle" x="4.88888889" y="0" width="2.17283951" height="3.25925926" rx="1.08"></rect>
                    <rect id="Rectangle" x="10.5925926" y="0.543209877" width="1.35802469" height="2.17283951" rx="0.679012346"></rect>
                    <rect id="Rectangle" x="0" y="0.543209877" width="1.35802469" height="2.17283951" rx="0.679012346"></rect>
                </g>
                <g id="Group" transform="translate(1.6296, 22) rotate(90) translate(-1.6296, -22)translate(-4.3457, 20.3704)">
                    <rect id="Rectangle" x="4.88888889" y="3.01044966e-14" width="2.17283951" height="3.25925926" rx="1.08"></rect>
                    <rect id="Rectangle" x="10.5925926" y="0.543209877" width="1.35802469" height="2.17283951" rx="0.679012346"></rect>
                    <rect id="Rectangle" x="0" y="0.543209877" width="1.35802469" height="2.17283951" rx="0.679012346"></rect>
                </g>
            </g>
        </g>
    </g>
</svg>