<?xml version="1.0" encoding="UTF-8"?>
<svg width="22px" height="24px" viewBox="0 0 22 24" version="1.1" xmlns="http://www.w3.org/2000/svg" xmlns:xlink="http://www.w3.org/1999/xlink">
    <title>Shape</title>
    <g id="Page-1" stroke="none" stroke-width="1" fill="none" fill-rule="evenodd">
        <g id="2" transform="translate(-55, -772)" fill="#ACBABE" fill-rule="nonzero">
            <g id="shopping-bag-(1)" transform="translate(55, 772)">
                <path d="M6.99998483,6.72222222 C7.54998091,6.72222222 7.99998483,6.29007937 7.99998483,5.76190476 L7.99998483,4.8015873 C7.99998483,3.20746032 9.33997638,1.92063492 10.9999722,1.92063492 C12.659968,1.92063492 13.9999646,3.20746032 13.9999646,4.8015873 L13.9999646,5.76190476 C13.9999646,6.29007937 14.4499635,6.72222222 14.9999621,6.72222222 C15.5499607,6.72222222 15.9999595,6.29007937 15.9999595,5.76190476 L15.9999595,4.8015873 C15.9999595,2.15111111 13.7599652,0 10.9999722,0 C8.23997916,0 5.99998483,2.15111111 5.99998483,4.8015873 L5.99998483,5.76190476 C5.99998483,6.29007937 6.44998369,6.72222222 6.99998483,6.72222222 Z M10.9999722,14.4047619 C8.23997916,14.4047619 5.99998483,12.2536508 5.99998483,9.6031746 C5.99998483,9.075 6.44998369,8.64285714 6.99998483,8.64285714 C7.54998091,8.64285714 7.99998483,9.075 7.99998483,9.6031746 C7.99998483,11.1973016 9.33997638,12.484127 10.9999722,12.484127 C12.659968,12.484127 13.9999646,11.1973016 13.9999646,9.6031746 C13.9999646,9.075 14.4499635,8.64285714 14.9999621,8.64285714 C15.5499607,8.64285714 15.9999595,9.075 15.9999595,9.6031746 C15.9999595,12.2536508 13.7599652,14.4047619 10.9999722,14.4047619 Z M21.9999723,17.1896825 L20.9999469,7.68253968 C20.9999469,6.0884127 19.6599503,4.80153185 17.9999545,4.80153185 L3.99998988,4.80153185 C2.37999398,4.79198413 1.04999734,6.03079365 1,7.58650794 L0,17.2857143 C0,20.4643651 2.6899932,23.047619 5.99998483,23.047619 L15.9999595,23.047619 C19.3299511,23.0380159 22.0099443,20.4355556 21.9999723,17.2376984 C21.9999723,17.2280952 21.9999723,17.2088889 21.9999723,17.1896825 Z" id="Shape"></path>
            </g>
        </g>
    </g>
</svg>